<?xml version="1.0" encoding="UTF-8" standalone="no"?>
<svg
   xmlns:dc="http://purl.org/dc/elements/1.1/"
   xmlns:cc="http://creativecommons.org/ns#"
   xmlns:rdf="http://www.w3.org/1999/02/22-rdf-syntax-ns#"
   xmlns:svg="http://www.w3.org/2000/svg"
   xmlns="http://www.w3.org/2000/svg"
   viewBox="0 0 793.70667 1122.52"
   height="1122.52"
   width="793.70667"
   xml:space="preserve"
   id="svg2"
   version="1.1"><metadata
     id="metadata8"><rdf:RDF><cc:Work
         rdf:about=""><dc:format>image/svg+xml</dc:format><dc:type
           rdf:resource="http://purl.org/dc/dcmitype/StillImage" /></cc:Work></rdf:RDF></metadata><defs
     id="defs6"><clipPath
       id="clipPath18"
       clipPathUnits="userSpaceOnUse"><path
         id="path16"
         d="M 0,841.89 H 595.28 V 0 H 0 Z" /></clipPath></defs><g
     transform="matrix(1.3333333,0,0,-1.3333333,0,1122.52)"
     id="g10"><g
       id="g12"><g
         clip-path="url(#clipPath18)"
         id="g14"><g
           transform="translate(381.2813,213.1777)"
           id="g20"><path
             id="path22"
             style="fill:#3952a4;fill-opacity:1;fill-rule:nonzero;stroke:none"
             d="m 0,0 c -31.556,-12.919 -67.857,-18.879 -108.62,-17.801 -26.413,0.72 -48.961,5.712 -68.264,13.195 9.403,-29.791 24.332,-53.874 34.745,-68.339 10.181,-1.423 20.768,-2.419 31.966,-2.706 3.749,-0.099 7.457,-0.158 11.152,-0.158 77.875,0 142.793,22.466 193.31,66.828 C 73.76,-11.29 37.432,-12.503 0,0" /></g><g
           transform="translate(292.3979,285.3623)"
           id="g24"><path
             id="path26"
             style="fill:#3952a4;fill-opacity:1;fill-rule:nonzero;stroke:none"
             d="m 0,0 c -27.26,-2.076 -54.819,5.425 -77.848,26.687 -2.952,2.722 -5.69,5.48 -8.247,8.269 C -95.102,11.77 -97.78,-10.893 -96.496,-32.092 -52.306,-61.697 -1.269,-64.372 44.809,-49.979 25.692,-36.36 9.902,-18.822 0,0" /></g><g
           transform="translate(295.3013,368.1963)"
           id="g28"><path
             id="path30"
             style="fill:#3952a4;fill-opacity:1;fill-rule:nonzero;stroke:none"
             d="m 0,0 c 3.912,5.342 7.203,8.127 7.203,8.127 -1.794,1.187 -3.564,2.227 -5.327,3.21 -1.231,0.638 -2.681,1.306 -4.288,1.972 -1.729,-0.324 -3.485,-0.485 -5.287,-0.367 -6.634,0.441 -10.613,2.727 -12.281,4.246 -14.374,0.539 -32.611,-5.3 -50.043,-29.438 0.41,-0.668 0.754,-1.361 1.193,-2.014 11.385,-16.911 31.744,-28.048 54.782,-30.251 C -14.791,-28.921 -10.564,-13.631 0,0" /></g><g
           transform="translate(374.8623,321.7217)"
           id="g32"><path
             id="path34"
             style="fill:#45b649;fill-opacity:1;fill-rule:nonzero;stroke:none"
             d="m 0,0 c -22.824,-20.133 -52.453,-34.066 -82.464,-36.359 9.901,-18.823 25.692,-36.361 44.809,-49.979 32.194,10.047 61.959,28.395 85.269,51.647 C 62.39,-19.943 74.978,-2.773 84.558,16.164 82.913,15.24 81.265,14.331 79.601,13.557 52.925,1.158 24.829,-3.075 0,0" /></g><g
           transform="translate(560.8711,496.1416)"
           id="g36"><path
             id="path38"
             style="fill:#45b649;fill-opacity:1;fill-rule:nonzero;stroke:none"
             d="m 0,0 c -3.279,-8.685 -7.615,-19.636 -12.871,-31.77 -6.211,-14.848 -13.922,-31.323 -23.103,-47.664 -3.839,-7.026 -7.88,-13.988 -12.112,-20.75 -2.31,-25.197 -16.582,-91.26 -67.469,-140.924 -18.458,-18.005 -39.853,-31.974 -64.035,-41.856 37.432,-12.503 73.76,-11.29 94.289,-8.981 3.459,3.045 6.85,6.173 10.178,9.418 70.195,68.517 85.363,159.873 85.285,189.294 C 10.115,-75.315 9.965,-40.304 0,0" /></g><g
           transform="translate(302.6367,375.8994)"
           id="g40"><path
             id="path42"
             style="fill:#45b649;fill-opacity:1;fill-rule:nonzero;stroke:none"
             d="m 0,0 c -0.074,0.247 -0.133,0.424 -0.133,0.424 -2.691,-2.623 -5.053,-5.35 -7.202,-8.127 -10.565,-13.631 -14.791,-28.921 -14.048,-44.515 0.857,-0.083 1.687,-0.243 2.547,-0.3 17.437,-1.156 34.257,3.628 48.922,12.86 C 15.602,-30.354 4.843,-17.026 0,0" /></g><g
           transform="translate(302.5039,376.3232)"
           id="g44"><path
             id="path46"
             style="fill:#754a9e;fill-opacity:1;fill-rule:nonzero;stroke:none"
             d="M 0,0 C -0.087,3.014 -0.418,5.874 -0.857,8.655 -3.616,6.936 -6.554,5.744 -9.614,5.182 -8.007,4.516 -6.558,3.848 -5.327,3.21 -1.936,1.464 0,0 0,0" /></g><g
           transform="translate(124.6885,270.4932)"
           id="g48"><path
             id="path50"
             style="fill:#754a9e;fill-opacity:1;fill-rule:nonzero;stroke:none"
             d="M 0,0 C -17.358,24.055 -29.453,52.889 -35.774,82.724 -54.289,56.013 -66.56,28.787 -73.216,11.876 c 7.305,-16.117 16.027,-31.53 26.285,-45.746 28.094,-38.93 78.193,-84.876 161.385,-96.391 -10.413,14.465 -25.342,38.548 -34.746,68.339 C 41.27,-47.021 15.908,-22.03 0,0" /></g><g
           transform="translate(206.3032,320.3184)"
           id="g52"><path
             id="path54"
             style="fill:#754a9e;fill-opacity:1;fill-rule:nonzero;stroke:none"
             d="m 0,0 c -33.357,36.392 -33.886,77.728 -22.208,107.695 -10.297,-2.822 -19.986,-6.832 -29.048,-11.813 -1.247,-0.688 -2.47,-1.401 -3.693,-2.112 -1.682,-0.992 -3.364,-1.999 -5.002,-3.052 -0.582,-0.37 -1.159,-0.737 -1.736,-1.11 -9.053,-5.987 -17.412,-12.904 -25.148,-20.37 0.478,-40.55 16.522,-83.765 55.818,-120.039 6.661,-6.144 13.559,-11.511 20.616,-16.247 C -11.686,-45.849 -9.007,-23.187 0,0" /></g><g
           transform="translate(275.3213,385.3838)"
           id="g56"><path
             id="path58"
             style="fill:#754a9e;fill-opacity:1;fill-rule:nonzero;stroke:none"
             d="m 0,0 c -0.098,0.09 -0.279,0.208 -0.364,0.294 0.008,0.019 0.018,0.04 0.024,0.071 9.138,1.44 16.897,7.25 21.081,15.311 -7.301,13.748 -22.897,28.676 -56.047,31.76 -8.171,-6.248 -15.666,-15.755 -20.389,-29.99 -5.218,-15.751 -3.096,-32.682 5.652,-46.884 C -32.611,-5.3 -14.375,0.539 0,0" /></g><g
           transform="translate(146.3521,411.0361)"
           id="g60"><path
             id="path62"
             style="fill:#ed1e24;fill-opacity:1;fill-rule:nonzero;stroke:none"
             d="m 0,0 c 1.638,1.053 3.32,2.061 5.002,3.052 1.223,0.716 2.452,1.432 3.693,2.112 9.062,4.981 18.751,8.991 29.048,11.814 1.764,4.536 3.806,8.812 6.06,12.767 14.838,26.035 47.022,51.989 88.88,39.485 46.891,-14.014 46.237,-47.319 43.775,-60.991 -2.462,-13.66 -10.519,-27.696 -21.148,-34.289 0.959,-5.204 0.842,-8.663 0.842,-8.663 1.238,0.725 2.381,1.503 3.545,2.258 8.063,5.555 27.379,21.4 30.341,47.277 0.039,0.324 0.078,0.639 0.101,0.968 0.087,0.914 0.126,1.855 0.173,2.798 0.045,1.063 0.088,2.125 0.08,3.197 0,0.43 -0.016,0.875 -0.031,1.31 -0.031,1.264 -0.088,2.531 -0.197,3.802 -0.08,0.928 -0.189,1.876 -0.307,2.822 -0.074,0.612 -0.143,1.223 -0.229,1.836 -2.691,17.035 -12.502,37.315 -34.601,60.787 -16.456,17.465 -36.351,29.237 -57.564,37.016 C 55.45,124.709 16.921,99.487 -6.489,58.401 -19.498,35.559 -27.226,7.732 -26.884,-21.479 c 7.736,7.465 16.095,14.382 25.149,20.37 C -1.159,-0.732 -0.582,-0.37 0,0" /></g><g
           transform="translate(91.5679,455.2065)"
           id="g64"><path
             id="path66"
             style="fill:#ed1e24;fill-opacity:1;fill-rule:nonzero;stroke:none"
             d="M 0,0 C 12.511,41.389 40.738,76.168 78.015,98.373 37.42,99.507 0.541,92.589 -18.845,88.064 -34.992,66.797 -47.539,42.784 -55.408,16.744 c -18.111,-59.909 -11.74,-129.874 15.312,-189.581 6.657,16.911 18.928,44.136 37.442,70.847 C -9.982,-67.38 -9.504,-31.432 0,0" /></g><g
           transform="translate(296.062,401.0596)"
           id="g68"><path
             id="path70"
             style="fill:#ed1e24;fill-opacity:1;fill-rule:nonzero;stroke:none"
             d="M 0,0 C 1.749,3.359 2.939,7.072 3.242,11.094 4.444,27.029 -7.498,40.925 -23.438,42.137 -31.826,42.762 -44.6,40.502 -56.047,31.76 -22.896,28.676 -7.301,13.748 0,0" /></g><g
           transform="translate(335.9805,442.5908)"
           id="g72"><path
             id="path74"
             style="fill:#f47720;fill-opacity:1;fill-rule:nonzero;stroke:none"
             d="m 0,0 c 0.098,-0.624 0.15,-1.222 0.229,-1.835 0.118,-0.946 0.227,-1.894 0.306,-2.823 0.11,-1.29 0.166,-2.551 0.197,-3.802 0.016,-0.435 0.032,-0.879 0.032,-1.31 0.007,-1.085 -0.024,-2.146 -0.08,-3.196 -0.047,-0.944 -0.086,-1.885 -0.173,-2.799 -0.035,-0.328 -0.063,-0.65 -0.102,-0.968 -2.962,-25.876 -22.277,-41.722 -30.341,-47.277 -2.168,-1.49 -3.545,-2.258 -3.545,-2.258 0,0 41.002,-1.601 73.48,17.754 1.538,4.831 2.863,9.791 3.788,14.949 8.001,44.458 -9.24,104.314 -84.164,126.698 -17.33,5.182 -34.837,6.555 -51.792,4.671 21.213,-7.78 41.108,-19.552 57.563,-37.017 C -12.502,37.315 -2.691,17.035 0,0" /></g><g
           transform="translate(169.583,553.5791)"
           id="g76"><path
             id="path78"
             style="fill:#f47720;fill-opacity:1;fill-rule:nonzero;stroke:none"
             d="m 0,0 c 16.246,9.677 34.201,16.997 53.348,21.38 57.41,13.129 111.673,-2.547 148.87,-43.022 22.647,-24.631 36.569,-48.799 43.827,-71.772 5.22,50.647 -21.507,105.492 -54.762,152.503 C 146.807,82.942 93.79,90.007 40.439,77.802 -15.49,65.008 -63.832,33.191 -96.86,-10.309 -77.475,-5.783 -40.595,1.135 0,0" /></g><g
           transform="translate(548,464.3721)"
           id="g80"><path
             id="path82"
             style="fill:#faed24;fill-opacity:1;fill-rule:nonzero;stroke:none"
             d="M 0,0 C 5.256,12.134 9.592,23.085 12.871,31.77 8.812,48.203 3.159,65.489 -4.85,82.891 c -33.115,71.929 -94.604,124.206 -182.756,155.377 -15.067,5.315 -31.605,-2.565 -36.931,-17.631 -5.33,-15.074 2.564,-31.613 17.631,-36.933 171.561,-60.667 171.916,-194.821 172.057,-245.321 0.004,-1.707 -0.11,-4.016 -0.366,-6.797 4.233,6.762 8.273,13.724 12.112,20.75 C -14.196,-31.362 -6.416,-14.826 0,0" /></g><g
           transform="translate(302.5039,376.3232)"
           id="g84"><path
             id="path86"
             style="fill:#faed24;fill-opacity:1;fill-rule:nonzero;stroke:none"
             d="M 0,0 C 0.039,-0.146 0.094,-0.282 0.133,-0.424 4.976,-17.45 15.734,-30.777 30.219,-40.082 49.865,-27.721 65.529,-7.301 73.479,17.754 41.002,-1.602 0,0 0,0" /></g><g
           transform="translate(415.6279,460.165)"
           id="g88"><path
             id="path90"
             style="fill:#faed24;fill-opacity:1;fill-rule:nonzero;stroke:none"
             d="m 0,0 c 16.958,-53.682 -2.671,-100.851 -34.039,-132.156 -2.164,-2.163 -4.422,-4.249 -6.727,-6.287 24.829,-3.076 52.925,1.158 79.601,13.556 1.664,0.775 3.312,1.684 4.957,2.608 33.012,65.265 29.994,151.651 -44.999,233.223 -15.673,17.052 -33.776,30.955 -53.555,41.559 C -21.507,105.492 5.22,50.647 0,0" /></g></g></g></g></svg>